<svg id="Capa_1" fill="lightgrey" enable-background="new 0 0 512 512" height="512" viewBox="0 0 512 512" width="512" xmlns="http://www.w3.org/2000/svg"><g id="XMLID_913_"><g id="XMLID_59_"><path id="XMLID_366_" d="m462 110h-107.695l-23.573-50.247c-1.647-3.511-5.175-5.753-9.053-5.753h-131.358c-3.878 0-7.406 2.242-9.053 5.753l-23.573 50.247h-29.695v-16.333c0-13.05-10.617-23.667-23.667-23.667h-40.666c-13.05 0-23.667 10.617-23.667 23.667v17.34c-22.795 4.645-40 24.847-40 48.993v248c0 27.57 22.43 50 50 50h412c27.57 0 50-22.43 50-50v-248c0-27.57-22.43-50-50-50zm-265.325-36h118.649l16.889 36h-152.426zm-136.675 19.667c0-2.022 1.645-3.667 3.667-3.667h40.667c2.021 0 3.667 1.645 3.667 3.667v16.333h-48.001zm-10 36.333h412c16.542 0 30 13.458 30 30v22h-21.72c-4.128-11.639-15.243-20-28.28-20s-24.152 8.361-28.28 20h-63.678c-13.809-10.667-29.387-18.94-46.276-24.446-5.252-1.713-10.896 1.157-12.607 6.409-1.711 5.251 1.158 10.895 6.409 12.607 55.286 18.022 92.432 69.232 92.432 127.43 0 73.888-60.112 134-134 134s-134-60.112-134-134c0-58.294 37.225-109.53 92.629-127.495 5.253-1.703 8.131-7.343 6.428-12.597-1.703-5.252-7.341-8.129-12.597-6.428-16.977 5.505-32.635 13.803-46.508 24.52h-141.952v-22c0-16.542 13.458-30 30-30zm402 62c0 5.514-4.486 10-10 10s-10-4.486-10-10 4.486-10 10-10 10 4.486 10 10zm-402 246c-16.542 0-30-13.458-30-30v-206h120.633c-2.987 3.386-5.856 6.902-8.568 10.573-19.669 26.62-30.065 58.236-30.065 91.427 0 57.369 31.536 107.504 78.179 134zm412 0h-130.179c46.643-26.496 78.179-76.631 78.179-134 0-33.149-10.372-64.732-29.995-91.333-2.733-3.705-5.626-7.251-8.639-10.667h42.354c4.128 11.639 15.243 20 28.28 20s24.152-8.361 28.28-20h21.72v206c0 16.542-13.458 30-30 30z"/><path id="XMLID_382_" d="m185.289 233.29c-38.989 38.99-38.989 102.431 0 141.421 19.495 19.495 45.103 29.242 70.711 29.242s51.216-9.747 70.711-29.242c38.989-38.99 38.989-102.432 0-141.422-38.99-38.989-102.432-38.99-141.422.001zm127.279 127.278c-31.192 31.191-81.946 31.192-113.137 0-31.192-31.191-31.192-81.945 0-113.137 15.598-15.598 36.08-23.394 56.569-23.394 20.484 0 40.975 7.8 56.568 23.394 31.192 31.192 31.192 81.946 0 113.137z"/><path id="XMLID_385_" d="m201.333 304c0 30.144 24.523 54.667 54.667 54.667s54.667-24.523 54.667-54.667-24.524-54.667-54.667-54.667-54.667 24.523-54.667 54.667zm89.334 0c0 19.115-15.551 34.667-34.667 34.667s-34.667-15.552-34.667-34.667 15.551-34.667 34.667-34.667 34.667 15.552 34.667 34.667z"/><path id="XMLID_386_" d="m256 170c2.63 0 5.21-1.07 7.07-2.93s2.93-4.44 2.93-7.07-1.07-5.21-2.93-7.07-4.44-2.93-7.07-2.93-5.21 1.07-7.07 2.93-2.93 4.44-2.93 7.07 1.07 5.21 2.93 7.07 4.44 2.93 7.07 2.93z"/></g></g></svg>